<?xml version="1.0" encoding="UTF-8" standalone="no"?><!DOCTYPE svg PUBLIC "-//W3C//DTD SVG 1.1//EN" "http://www.w3.org/Graphics/SVG/1.1/DTD/svg11.dtd"><svg width="100%" height="100%" viewBox="0 0 1000 645" version="1.1" xmlns="http://www.w3.org/2000/svg" xmlns:xlink="http://www.w3.org/1999/xlink" xml:space="preserve" xmlns:serif="http://www.serif.com/" style="fill-rule:evenodd;clip-rule:evenodd;stroke-linejoin:round;stroke-miterlimit:2;"><rect id="Artboard1" x="0" y="0" width="1000" height="644.3" style="fill:none;"/><clipPath id="_clip1"><rect x="0" y="0" width="1000" height="644.3"/></clipPath><g clip-path="url(#_clip1)"><g><clipPath id="_clip2"><rect x="-0.001" y="0" width="1000" height="644.309"/></clipPath><g clip-path="url(#_clip2)"><path d="M58.109,617.317l-36.036,0c-0.692,0 -1.322,0.409 -1.586,1.047l-9.898,23.293c-0.264,0.638 -0.895,1.049 -1.586,1.049l-7.296,-0c-1.22,-0 -2.053,-1.26 -1.565,-2.391l38.78,-88.325c0.59,-1.376 2.541,-1.36 3.13,0l37.764,88.325c0.468,1.131 -0.345,2.391 -1.585,2.391l-7.317,-0c-0.691,-0 -1.321,-0.411 -1.565,-1.049l-9.654,-23.26c-0.265,-0.638 -0.895,-1.047 -1.586,-1.047l0,-0.033Zm-3.76,-11.819l-12.561,-29.937c-0.589,-1.392 -2.541,-1.392 -3.13,0l-12.785,29.937c-0.467,1.13 0.346,2.374 1.565,2.374l25.326,0c1.239,0 2.052,-1.244 1.585,-2.374Z" style="fill:#286eff;fill-rule:nonzero;"/><path d="M93.495,640.986l0,-87.817c0,-1.539 1.891,-2.293 2.948,-1.179l64.248,67.374c1.056,1.112 2.926,0.36 2.926,-1.179l0,-63.788c0,-0.952 0.773,-1.704 1.708,-1.704l6.565,0c0.935,0 1.707,0.771 1.707,1.704l0,88.079c0,1.539 -1.89,2.293 -2.947,1.179l-64.248,-67.374c-1.057,-1.114 -2.947,-0.36 -2.947,1.179l-0,63.526c-0,0.949 -0.773,1.703 -1.687,1.703l-6.565,0c-0.956,0 -1.708,-0.77 -1.708,-1.703Z" style="fill:#286eff;fill-rule:nonzero;"/><path d="M191.951,597.756c-0,-26.859 20.894,-46.552 46.788,-46.552c25.895,-0 46.809,19.709 46.809,46.552c0,26.846 -20.772,46.553 -46.809,46.553c-26.016,0 -46.788,-19.837 -46.788,-46.553Zm10.223,0c0,20.643 16.342,37.11 36.545,37.11c20.224,0 36.545,-16.467 36.545,-37.11c-0,-20.64 -16.321,-37.107 -36.545,-37.107c-20.203,-0 -36.545,16.467 -36.545,37.107Z" style="fill:#286eff;fill-rule:nonzero;"/><path d="M345.589,569.47c-0.813,0.541 -1.89,0.278 -2.398,-0.539c-1.2,-1.965 -2.805,-3.912 -4.391,-5.189c-1.748,-1.343 -4.979,-3.112 -10.101,-3.112c-8.903,0 -15.102,5.533 -15.102,13.899c0,3.502 0.955,5.532 3.374,7.823c2.683,2.701 6.057,4.175 9.431,5.665l8.638,3.78c8.598,3.748 16.118,7.874 19.614,17.646c0.041,0.114 0.061,0.23 0.102,0.344c3.821,20.329 -9.472,34.522 -27.805,34.522c-5.935,0 -13.334,-1.211 -19.533,-7.284c-4.004,-3.897 -6.605,-9.332 -7.967,-14.307c-0.244,-0.901 0.305,-1.817 1.179,-2.063l6.321,-1.75c0.935,-0.262 1.91,0.311 2.114,1.244c0.894,3.977 2.825,7.366 5.061,9.723c3.922,3.911 8.374,4.992 12.967,4.992c12.256,0 18.069,-8.774 18.069,-17.809c0,-4.044 -1.199,-7.563 -4.451,-10.526c-2.561,-2.423 -6.057,-4.043 -10.793,-6.203l-8.089,-3.781c-3.516,-1.622 -7.947,-3.504 -12.012,-7.433c-3.903,-3.78 -6.2,-7.955 -6.2,-14.715c0,-13.897 10.651,-23.21 25.224,-23.21c5.528,0 9.98,1.08 14.431,4.043c3.191,2.128 5.955,5.173 7.947,8.528c0.468,0.801 0.264,1.818 -0.508,2.34l-5.102,3.372l-0.02,-0Z" style="fill:#286eff;fill-rule:nonzero;"/><path d="M405.142,554.38c-0,-0.951 0.772,-1.703 1.707,-1.703l16.647,0c9.024,0 21.849,0.949 33.17,10.525c8.212,6.892 15.366,18.349 15.366,34.554c0,18.891 -9.309,29.023 -15.772,34.555c-8.232,7.023 -16.87,10.395 -32.927,10.395l-16.504,-0c-0.935,-0 -1.687,-0.771 -1.687,-1.704l-0,-86.622Zm9.98,77.163c-0,0.949 0.772,1.701 1.707,1.701l7.053,0c7.154,0 16.992,-0.819 25.752,-8.101c6.748,-5.665 12.154,-14.586 12.154,-27.403c0,-21.589 -15.101,-35.634 -37.906,-35.634l-7.053,0c-0.955,0 -1.707,0.768 -1.707,1.701l-0,67.736Z" style="fill:#286eff;fill-rule:nonzero;"/><path d="M535.325,562.12l-33.272,0c-0.956,0 -1.708,0.771 -1.708,1.704l0,23.308c0,0.95 0.773,1.704 1.708,1.704l32.195,-0c0.955,-0 1.707,0.768 1.707,1.701l-0,6.024c-0,0.95 -0.772,1.702 -1.707,1.702l-32.195,-0c-0.956,-0 -1.708,0.77 -1.708,1.703l0,31.543c0,0.949 0.773,1.701 1.708,1.701l33.272,-0c0.955,-0 1.707,0.77 1.707,1.703l0,6.024c0,0.95 -0.772,1.702 -1.707,1.702l-43.252,-0c-0.955,-0 -1.707,-0.769 -1.707,-1.702l-0,-86.591c-0,-0.949 0.772,-1.703 1.707,-1.703l43.252,-0c0.955,-0 1.707,0.77 1.707,1.703l0,6.024c0,0.949 -0.772,1.701 -1.707,1.701l-0,0.049Z" style="fill:#286eff;fill-rule:nonzero;"/><path d="M633.191,599.198c-0,-0.95 0.772,-1.704 1.707,-1.704l35.793,0l-0,2.161c-0,9.986 -2.968,20.788 -8.638,28.482c-2.704,3.65 -12.805,16.189 -33.456,16.189c-26.687,-0 -46.666,-20.378 -46.666,-46.553c-0,-26.173 20.081,-46.553 46.931,-46.553c8.638,-0 18.739,2.16 27.52,8.904c3.557,2.734 6.91,6.187 9.39,9.38c0.569,0.704 0.488,1.736 -0.183,2.342l-4.858,4.419c-0.752,0.687 -1.91,0.557 -2.52,-0.263c-2.297,-3.012 -4.837,-5.695 -7.378,-7.774c-4.329,-3.504 -11.057,-7.563 -21.87,-7.563c-21.707,-0 -36.809,16.335 -36.809,37.256c0,24.569 19.553,36.976 36.545,36.976c12.012,-0 22.398,-6.071 27.5,-15.108c1.423,-2.504 2.967,-6.171 3.496,-10.884c0.122,-1.033 -0.671,-1.933 -1.707,-1.933l-23.151,-0c-0.935,-0 -1.687,-0.768 -1.687,-1.701l0,-6.025l0.041,-0.048Z" style="fill:#286eff;fill-rule:nonzero;"/><path d="M699.004,554.38l-0,77.147c-0,0.949 0.772,1.701 1.707,1.701l21.382,0c0.956,0 1.708,0.77 1.708,1.703l-0,6.025c-0,0.949 -0.773,1.701 -1.708,1.701l-31.361,-0c-0.956,-0 -1.708,-0.768 -1.708,-1.701l0,-86.592c0,-0.949 0.773,-1.703 1.708,-1.703l6.544,-0c0.956,-0 1.708,0.77 1.708,1.703l0.02,0.016Z" style="fill:#286eff;fill-rule:nonzero;"/><path d="M727.845,597.756c0,-26.859 20.915,-46.552 46.809,-46.552c25.895,-0 46.809,19.709 46.809,46.552c0,26.846 -20.792,46.553 -46.809,46.553c-26.016,0 -46.809,-19.837 -46.809,-46.553Zm10.244,0c0,20.643 16.321,37.11 36.545,37.11c20.224,0 36.545,-16.467 36.545,-37.11c-0,-20.64 -16.321,-37.107 -36.545,-37.107c-20.224,-0 -36.545,16.467 -36.545,37.107Z" style="fill:#286eff;fill-rule:nonzero;"/><path d="M855.976,552.677c4.979,0 14.004,0.409 20.63,5.663c2.825,2.162 8.089,7.695 8.089,18.628c0,3.945 -0.732,10.559 -6.463,15.764c-0.915,0.833 -0.63,2.407 0.548,2.848c10.305,3.977 14.147,13.815 14.147,21.737c-0,8.643 -4.33,15.649 -9.187,19.431c-7.134,5.663 -15.366,5.941 -21.565,5.941l-20.691,0c-0.935,0 -1.687,-0.77 -1.687,-1.703l-0,-86.589c-0,-0.952 0.772,-1.704 1.687,-1.704l14.492,0l-0,-0.016Zm-6.2,37.829c0,0.95 0.773,1.702 1.687,1.702l5.854,-0c5.264,-0 17.663,-1.08 17.663,-14.978c-0,-14.845 -14.553,-15.108 -17.399,-15.108l-6.118,0c-0.955,0 -1.707,0.769 -1.707,1.702l0,26.682l0.02,0Zm0,41.037c0,0.949 0.773,1.701 1.687,1.701l9.756,0c5.813,0 11.464,-0.408 15.793,-3.78c3.496,-2.571 5.935,-7.023 5.935,-12.409c0,-7.152 -4.187,-11.343 -7.683,-13.225c-3.374,-1.882 -8.11,-2.702 -15.244,-2.702l-8.557,0c-0.935,0 -1.687,0.771 -1.687,1.704l0,28.711Z" style="fill:#286eff;fill-rule:nonzero;"/><path d="M906.402,597.756c0,-26.859 20.895,-46.552 46.789,-46.552c25.894,-0 46.809,19.709 46.809,46.552c-0,26.846 -20.772,46.553 -46.809,46.553c-26.016,0 -46.789,-19.837 -46.789,-46.553Zm10.265,0c-0,20.643 16.321,37.11 36.524,37.11c20.224,0 36.545,-16.467 36.545,-37.11c-0,-20.64 -16.321,-37.107 -36.545,-37.107c-20.203,-0 -36.524,16.467 -36.524,37.107Z" style="fill:#286eff;fill-rule:nonzero;"/><path d="M875.772,320.354c-5.975,9.691 -13.231,18.725 -21.666,26.927c-27.033,26.256 -62.988,40.725 -101.24,40.79c-79.004,0.133 -143.374,-61.939 -143.537,-138.398l0,-9.935c-0.142,-56.98 35.488,-106.087 86.321,-127.481c17.378,-7.316 36.565,-11.376 56.687,-11.425l0.244,-0l0,-100.832l-0.427,-0c-65.996,0.098 -128.069,25.159 -174.776,70.533c-46.728,45.358 -72.378,105.514 -72.277,169.368l0.041,9.937c0.122,63.87 25.996,123.929 72.866,169.122c46.89,45.211 109.024,70.042 175.061,69.926c34.756,-0.065 67.846,-7.087 97.886,-19.707c51.362,-21.606 93.72,-59.616 120,-107.118l-95.162,-41.723l-0.021,0.016Z" style="fill:#286eff;fill-rule:nonzero;"/><path d="M608.943,235.661l-0.59,-9.919c-7.825,-131.835 -125.02,-232.929 -261.26,-225.35c-136.24,7.595 -240.711,120.998 -232.866,252.848l0.59,9.921c7.825,131.833 125.04,232.929 261.26,225.349c136.24,-7.579 240.691,-120.998 232.866,-252.833l-0,-0.016Zm-390.102,21.705l-0.589,-9.919c-4.533,-76.328 55.935,-142 134.817,-146.387c78.862,-4.387 146.707,54.148 151.26,130.46l0.589,9.919c2.277,38.157 -11.707,73.659 -36.138,100.161c-24.41,26.502 -59.228,44.016 -98.679,46.209c-78.862,4.386 -146.728,-54.132 -151.26,-130.459l-0,0.016Z" style="fill:#286eff;fill-rule:nonzero;"/><path d="M752.134,0.113c-66.016,0.098 -128.09,25.159 -174.797,70.533c-7.337,7.121 -14.146,14.618 -20.427,22.426c29.655,36.944 48.456,82.646 51.443,132.784l0.59,9.919c0.183,3.388 0.325,6.743 0.366,10.099l-0,-6.041c-0.122,-56.962 35.488,-106.085 86.321,-127.463c17.398,-7.333 36.565,-11.392 56.687,-11.425l0.264,-0l0,-100.832l-0.447,0Zm-247.033,249.838c0,0.639 0,1.277 0.021,1.915c0.02,-1.604 0.02,-3.209 -0.021,-4.829l0,2.914Z" style="fill:url(#_Linear3);fill-rule:nonzero;"/><path d="M608.943,235.661l-0.59,-9.919c-7.825,-131.835 -125.02,-232.929 -261.26,-225.35c-136.24,7.595 -240.711,120.998 -232.866,252.848l0.59,9.921c7.825,131.833 125.04,232.929 261.26,225.349c136.24,-7.579 240.691,-120.998 232.866,-252.833l-0,-0.016Zm-390.102,21.705l-0.589,-9.919c-4.533,-76.328 55.935,-142 134.817,-146.387c78.862,-4.387 146.707,54.148 151.26,130.46l0.589,9.919c2.277,38.157 -11.707,73.659 -36.138,100.161c-24.41,26.502 -59.228,44.016 -98.679,46.209c-78.862,4.386 -146.728,-54.132 -151.26,-130.459l-0,0.016Z" style="fill:url(#_Linear4);fill-rule:nonzero;"/><path d="M505.162,253.372c-0.02,-0.719 -0.04,-1.441 -0.04,-2.16c-0,0.719 -0,1.441 -0.041,2.16c-0.955,33.59 -14.451,64.51 -36.301,88.228c-24.39,26.518 -59.228,44.016 -98.679,46.209c-78.862,4.386 -146.728,-54.132 -151.26,-130.459l-0.366,-6.352l-104.35,0c0.021,0.738 0.061,1.474 0.122,2.226l0.59,9.92c7.825,131.834 125.02,232.929 261.26,225.35c74.086,-4.126 138.781,-39.563 181.118,-92.221c-32.927,-40.826 -51.179,-90.505 -52.032,-142.901l-0.021,0Z" style="fill:url(#_Linear5);fill-rule:nonzero;"/><path d="M935.325,404.488l-75.122,-56.406c-1.199,-0.901 -1.423,-2.588 -0.488,-3.748l15.041,-18.744c0.935,-1.161 2.663,-1.374 3.862,-0.474l75.122,56.407c1.219,0.9 1.423,2.587 0.488,3.748l-15.021,18.743c-0.935,1.161 -2.683,1.374 -3.882,0.474Z" style="fill:#286eff;fill-rule:nonzero;"/><path d="M954.858,382.964l-84.086,-48.698c-1.301,-0.754 -1.727,-2.39 -0.955,-3.666l11.89,-19.218c0.793,-1.26 2.48,-1.668 3.781,-0.916l84.085,48.697c1.301,0.754 1.728,2.39 0.955,3.667l-11.89,19.217c-0.792,1.26 -2.479,1.669 -3.78,0.917Z" style="fill:#286eff;fill-rule:nonzero;"/><path d="M969.593,359.395l-88.211,-39.844c-1.382,-0.622 -1.992,-2.209 -1.341,-3.551l8.556,-17.727c0.651,-1.342 2.297,-1.915 3.679,-1.293l88.212,39.841c1.362,0.622 1.971,2.21 1.321,3.551l-8.557,17.728c-0.63,1.343 -2.297,1.916 -3.659,1.295Z" style="fill:#286eff;fill-rule:nonzero;"/><path d="M980.528,332.892l-91.3,-29.168c-1.444,-0.46 -2.236,-1.966 -1.748,-3.372l5.752,-16.895c0.467,-1.39 2.032,-2.16 3.475,-1.701l91.321,29.169c1.444,0.459 2.216,1.963 1.748,3.372l-5.752,16.892c-0.487,1.393 -2.032,2.161 -3.496,1.703Z" style="fill:#286eff;fill-rule:nonzero;"/><path d="M989.573,305.736l-94.532,-18.774c-1.484,-0.295 -2.439,-1.704 -2.135,-3.143l3.313,-15.681c0.326,-1.441 1.769,-2.374 3.273,-2.079l94.512,18.775c1.504,0.294 2.459,1.703 2.155,3.142l-3.313,15.683c-0.326,1.439 -1.769,2.372 -3.273,2.077Z" style="fill:#286eff;fill-rule:nonzero;"/><path d="M995.264,277.319l-96.524,-7.906c-1.525,-0.132 -2.643,-1.409 -2.521,-2.882l1.261,-14.175c0.122,-1.474 1.443,-2.553 2.967,-2.439l96.504,7.906c1.525,0.13 2.663,1.409 2.521,2.88l-1.24,14.177c-0.122,1.474 -1.464,2.553 -2.968,2.439Z" style="fill:#286eff;fill-rule:nonzero;"/><path d="M897.317,248.592l-0.427,-12.439c-0.061,-1.474 1.138,-2.702 2.663,-2.767l97.154,-3.242c1.525,-0.048 2.805,1.098 2.846,2.572l0.447,12.439c0.041,1.473 -1.138,2.701 -2.663,2.766l-97.174,3.242c-1.525,0.049 -2.785,-1.098 -2.846,-2.571Z" style="fill:#286eff;fill-rule:nonzero;"/><path d="M896.118,230.604l-1.667,-10.557c-0.244,-1.457 0.793,-2.817 2.297,-3.045l96.463,-14.242c1.504,-0.229 2.907,0.787 3.151,2.242l1.666,10.559c0.224,1.457 -0.813,2.815 -2.317,3.045l-96.463,14.24c-1.504,0.229 -2.907,-0.785 -3.13,-2.242Z" style="fill:#286eff;fill-rule:nonzero;"/><path d="M892.947,213.988l-2.906,-10.295c-0.387,-1.425 0.467,-2.882 1.93,-3.275l94.492,-24.88c1.484,-0.393 2.988,0.458 3.395,1.866l2.886,10.296c0.406,1.424 -0.468,2.881 -1.931,3.274l-94.492,24.88c-1.463,0.394 -2.967,-0.458 -3.374,-1.866Z" style="fill:#286eff;fill-rule:nonzero;"/><path d="M887.541,197.113l-3.395,-8.266c-0.549,-1.375 0.143,-2.914 1.565,-3.47l91.362,-35.03c1.443,-0.54 3.029,0.131 3.598,1.49l3.374,8.266c0.569,1.375 -0.122,2.914 -1.545,3.47l-91.382,35.03c-1.423,0.54 -3.029,-0.131 -3.577,-1.49Z" style="fill:#286eff;fill-rule:nonzero;"/><path d="M880.183,181.038l-3.435,-6.286c-0.732,-1.309 -0.203,-2.913 1.138,-3.601l87.195,-44.638c1.342,-0.687 3.008,-0.196 3.72,1.113l3.435,6.286c0.731,1.309 0.203,2.914 -1.138,3.601l-87.196,44.638c-1.341,0.687 -3.008,0.196 -3.719,-1.113Z" style="fill:#286eff;fill-rule:nonzero;"/><path d="M871.504,166.651l-4.106,-5.893c-0.853,-1.228 -0.528,-2.881 0.732,-3.7l82.012,-53.657c1.26,-0.818 2.968,-0.507 3.821,0.721l4.126,5.893c0.854,1.227 0.529,2.88 -0.731,3.699l-82.013,53.657c-1.26,0.818 -2.987,0.507 -3.841,-0.72Z" style="fill:#286eff;fill-rule:nonzero;"/><path d="M860.772,152.639l-3.577,-4.076c-0.976,-1.129 -0.833,-2.815 0.325,-3.765l75.895,-62.054c1.158,-0.949 2.886,-0.802 3.882,0.311l3.577,4.076c0.976,1.129 0.833,2.815 -0.325,3.765l-75.895,62.054c-1.158,0.949 -2.886,0.802 -3.882,-0.311Z" style="fill:#286eff;fill-rule:nonzero;"/><path d="M848.536,139.968l-2.682,-2.455c-1.098,-1.015 -1.139,-2.701 -0.082,-3.765l68.821,-69.813c1.057,-1.064 2.805,-1.113 3.903,-0.082l2.662,2.455c1.098,1.015 1.139,2.701 0.102,3.765l-68.841,69.813c-1.037,1.064 -2.785,1.113 -3.883,0.082Z" style="fill:#286eff;fill-rule:nonzero;"/><path d="M835,128.789l-1.464,-1.08c-1.199,-0.901 -1.422,-2.57 -0.508,-3.749l60.854,-76.884c0.915,-1.162 2.642,-1.391 3.842,-0.491l1.463,1.08c1.219,0.9 1.443,2.57 0.508,3.749l-60.833,76.884c-0.935,1.162 -2.643,1.391 -3.862,0.491Z" style="fill:#286eff;fill-rule:nonzero;"/><path d="M821.138,119.754l-1.565,-0.917c-1.301,-0.769 -1.707,-2.406 -0.935,-3.667l51.87,-83.202c0.793,-1.261 2.5,-1.67 3.781,-0.901l1.565,0.917c1.321,0.769 1.727,2.406 0.935,3.667l-51.87,83.202c-0.773,1.261 -2.48,1.67 -3.781,0.901Z" style="fill:#286eff;fill-rule:nonzero;"/><path d="M805.671,111.962c-1.383,-0.605 -1.992,-2.193 -1.362,-3.535l41.951,-88.67c0.65,-1.342 2.276,-1.932 3.659,-1.31c1.382,0.606 1.991,2.194 1.361,3.536l-41.971,88.67c-0.63,1.342 -2.256,1.931 -3.638,1.309Z" style="fill:#286eff;fill-rule:nonzero;"/><path d="M790.325,106.364c-0.955,-0.311 -1.484,-1.309 -1.179,-2.242l31.647,-93.663c0.304,-0.933 1.341,-1.44 2.317,-1.146c0.955,0.311 1.483,1.31 1.179,2.243l-31.647,93.662c-0.305,0.933 -1.341,1.441 -2.317,1.146Z" style="fill:#286eff;fill-rule:nonzero;"/><path d="M154.125,200.991l0,280.824c0,3.911 -3.17,7.088 -7.093,7.088l-87.683,-0c-3.923,-0 -7.094,-3.177 -7.094,-7.088l0,-280.824c0,-42.264 -18.78,-80.191 -48.435,-105.89c-3.821,-3.29 -4.878,-8.757 -2.703,-13.308l37.053,-77.702c1.89,-3.962 6.87,-5.337 10.488,-2.849c63.638,43.64 105.467,116.906 105.467,199.749Z" style="fill:#286eff;fill-rule:nonzero;"/><path d="M790.447,2.732c0.041,0.18 0.041,0.376 0,0.573l-15.244,88.882l-1.423,8.332c-0.162,0.966 -1.118,1.621 -2.113,1.474c-0.996,-0.164 -1.667,-1.081 -1.505,-2.047l1.403,-8.184l15.264,-89.014c0.163,-0.965 1.118,-1.62 2.114,-1.473c0.793,0.131 1.402,0.737 1.504,1.49l0,-0.033Z" style="fill:#286eff;fill-rule:nonzero;"/></g></g></g><defs><linearGradient id="_Linear3" x1="0" y1="0" x2="1" y2="0" gradientUnits="userSpaceOnUse" gradientTransform="matrix(-261.992,225.24,-225.24,-261.992,701.463,64.8681)"><stop offset="0" style="stop-color:#1007ae;stop-opacity:0"/><stop offset="1" style="stop-color:#1007ae;stop-opacity:1"/></linearGradient><linearGradient id="_Linear4" x1="0" y1="0" x2="1" y2="0" gradientUnits="userSpaceOnUse" gradientTransform="matrix(632.297,0,0,632.297,-351.342,244.451)"><stop offset="0" style="stop-color:#1007ae;stop-opacity:0"/><stop offset="0.62" style="stop-color:#1007ae;stop-opacity:1"/><stop offset="1" style="stop-color:#1007ae;stop-opacity:0"/></linearGradient><linearGradient id="_Linear5" x1="0" y1="0" x2="1" y2="0" gradientUnits="userSpaceOnUse" gradientTransform="matrix(-302.521,281.652,-281.652,-302.521,662.764,20.411)"><stop offset="0" style="stop-color:#1007ae;stop-opacity:0"/><stop offset="0.37" style="stop-color:#1007ae;stop-opacity:1"/><stop offset="1" style="stop-color:#1007ae;stop-opacity:0"/></linearGradient></defs></svg>